<svg xmlns="http://www.w3.org/2000/svg" viewBox="0 0 1280 320" width="1280" height="320" role="img" aria-label="ZarishHealth"><title>ZarishHealth</title><rect width="1280" height="320" fill="#FFFFFF"/><rect width="1280" height="320" fill="#F5F9FF"/><g transform="translate(70.40,86.40)"><g transform="translate(-27.420,-18.761) scale(0.721569)"><path d="M118 34 L190 60 V112" fill="none" stroke="#017CF5" stroke-width="15" stroke-linejoin="round" stroke-linecap="round"/><path d="M160.2 192.9 C148.5 204.6 133.8 214.6 118 222 C78 204 46 170 46 126 V60 L118 34" fill="none" stroke="#017CF5" stroke-width="15" stroke-linejoin="round" stroke-linecap="round"/><path d="M84 92 H150 L88 156 H132" fill="none" stroke="#017CF5" stroke-width="15" stroke-linejoin="round" stroke-linecap="round"/><path d="M132 156 C148 159 147 170 139 175" fill="none" stroke="#017CF5" stroke-width="11" stroke-linecap="round"/><circle cx="131" cy="186" r="11" fill="none" stroke="#017CF5" stroke-width="9"/><circle cx="84" cy="92" r="12" fill="#017CF5"/><circle cx="150" cy="92" r="12" fill="#017CF5"/><rect x="162" y="141" width="76" height="22" rx="6" fill="#10B981"/><rect x="189" y="114" width="22" height="76" rx="6" fill="#10B981"/></g><path d="M192.18894424019612 119.08112V106.7401825L227.5622254901961 57.98737Q231.22785049019612 52.91658875 235.74878799019612 47.84580749999999Q236.8484754901961 46.623932499999995 237.94816299019612 45.4020575Q235.80988174019612 45.463151249999996 233.6716004901961 45.52424499999999Q227.31785049019612 45.64643249999999 220.96410049019613 45.64643249999999H192.12785049019612V28.05143249999999H263.79081924019613V40.45346375L229.0895692401961 88.28987Q225.2406629901961 93.5439325 220.59753799019612 98.797995Q219.2534754901961 100.264245 217.90941299019613 101.79158875Q220.53644424019612 101.66940124999999 223.1634754901961 101.6083075Q229.8226942401961 101.48612 236.54300674019612 101.48612H263.8519129901961V119.08112Z M294.7213629901961 120.302995Q288.1843317401961 120.302995 283.0830036151961 118.07307312500001Q277.9816754901961 115.84315125 275.1102692401961 111.352760625Q272.2388629901961 106.86237 272.2388629901961 100.14205749999999Q272.2388629901961 94.46033875 274.2244098651961 90.55033875000001Q276.2099567401961 86.64033875 279.75339424019614 84.19658874999999Q283.2968317401961 81.75283875 287.8788629901961 80.46987Q292.4608942401961 79.18690125 297.6538629901961 78.75924499999999Q303.4577692401961 78.270495 307.00120674019615 77.690104375Q310.54464424019613 77.10971375 312.19417549019613 75.9489325Q313.8437067401961 74.78815125 313.8437067401961 72.71096374999999V72.46658875Q313.8437067401961 70.0839325 312.7440192401961 68.43440125000001Q311.6443317401961 66.78487 309.5671442401961 65.92955749999999Q307.48995674019613 65.07424499999999 304.55745674019613 65.07424499999999Q301.6249567401961 65.07424499999999 299.3339411151961 65.92955749999999Q297.0429254901961 66.78487 295.5766754901961 68.3733075Q294.1104254901961 69.961745 293.4994879901961 72.10002625L274.1938629901961 69.59518249999999Q275.53792549019613 63.7301825 279.4784723651961 59.300885625Q283.4190192401961 54.87158875 289.80331611519614 52.397291875Q296.1876129901961 49.922995 304.7407379901961 49.922995Q311.0944879901961 49.922995 316.6234723651961 51.419791875Q322.1524567401961 52.91658875 326.3068317401961 55.818541875Q330.4612067401961 58.720495 332.7827692401961 62.966510625Q335.10433174019613 67.21252625 335.10433174019613 72.71096374999999V119.08112H315.0655817401961V109.48940125H314.5157379901961Q312.6829254901961 113.03283875 309.8420661151961 115.41549499999999Q307.0012067401961 117.79815125 303.2439411151961 119.050573125Q299.4866754901961 120.302995 294.7213629901961 120.302995ZM301.1973004901961 106.19033875Q304.8018317401961 106.19033875 307.7037848651961 104.72408874999999Q310.6057379901961 103.25783874999999 312.3163629901961 100.69190125Q314.0269879901961 98.12596375 314.0269879901961 94.7658075V88.22877625Q313.1105817401961 88.71752624999999 311.73597236519606 89.1451825Q310.3613629901961 89.57283875 308.7118317401961 89.908854375Q307.0623004901961 90.24486999999999 305.4127692401961 90.519791875Q303.7632379901961 90.79471375 302.2358942401961 91.03908874999999Q299.1201129901961 91.466745 296.92073799019613 92.50533874999999Q294.7213629901961 93.5439325 293.5605817401961 95.19346375Q292.3998004901961 96.842995 292.3998004901961 99.1645575Q292.3998004901961 101.42502625 293.5605817401961 102.982916875Q294.7213629901961 104.5408075 296.67636299019614 105.365573125Q298.6313629901961 106.19033875 301.1973004901961 106.19033875Z M347.3401879901961 119.08112V50.7783075H368.0509692401961V63.241432499999995H368.7840942401961Q370.6169067401961 56.46002625 374.8629223651961 53.191510625Q379.10893799019607 49.922995 384.7295629901961 49.922995Q386.1958129901961 49.922995 387.8147973651961 50.10627625Q389.4337817401961 50.2895575 390.7778442401961 50.65612V69.22862Q389.2505004901961 68.67877625 386.7762036151961 68.403854375Q384.3019067401961 68.12893249999999 382.3469067401961 68.12893249999999Q378.4369067401961 68.12893249999999 375.3211254901961 69.870104375Q372.2053442401961 71.61127625 370.4336254901961 74.66596375Q368.6619067401961 77.72065125 368.6619067401961 81.81393249999999V119.08112Z M398.00401299019614 119.08112V50.7783075H419.32573174019615V119.08112ZM408.63432549019615 42.775026249999996Q404.11338799019614 42.775026249999996 400.87541924019615 39.750885624999995Q397.6374504901961 36.726744999999994 397.6374504901961 32.511276249999995Q397.6374504901961 28.234713749999997 400.87541924019615 25.241119999999995Q404.11338799019614 22.247526249999993 408.63432549019615 22.247526249999993Q413.21635674019615 22.247526249999993 416.45432549019614 25.210573124999996Q419.69229424019613 28.17362 419.69229424019613 32.511276249999995Q419.69229424019613 36.78783874999999 416.45432549019614 39.781432499999994Q413.21635674019615 42.775026249999996 408.63432549019615 42.775026249999996Z M460.33674424019614 120.36408875Q451.6003379901961 120.36408875 444.8800254901961 117.88979187499999Q438.1597129901961 115.41549499999999 433.9442442401961 110.741823125Q429.7287754901961 106.06815125 428.50690049019613 99.53112L448.30127549019613 96.41533874999999Q449.5842442401961 100.8751825 452.6389317401961 103.13565125Q455.6936192401961 105.39612 461.1309629901961 105.39612Q465.5908067401961 105.39612 468.1567442401961 103.838229375Q470.7226817401961 102.28033875 470.7226817401961 99.71440125Q470.7226817401961 97.331745 468.6760411151961 95.89604187500001Q466.62940049019613 94.46033875 462.3528379901961 93.60502625L450.4395567401961 91.28346375Q440.2979942401961 89.32846375 435.25775986519614 84.410416875Q430.2175254901961 79.49237 430.2175254901961 71.61127625Q430.2175254901961 64.76877625 433.91369736519613 59.94237Q437.60986924019613 55.11596375 444.3607286151961 52.519479375Q451.1115879901961 49.922995 460.2756504901961 49.922995Q468.8287754901961 49.922995 475.1519786151961 52.214010625Q481.4751817401961 54.50502625 485.3546348651961 58.751041875Q489.23408799019614 62.9970575 490.3948692401961 68.86205749999999L471.5779942401961 71.85565125Q470.6615879901961 68.43440125 467.8207286151961 66.509948125Q464.9798692401961 64.585495 460.64221299019613 64.585495Q456.7933067401961 64.585495 454.1357286151961 66.14338562500001Q451.47815049019613 67.70127625 451.47815049019613 70.3283075Q451.47815049019613 72.405495 453.1276817401961 73.963385625Q454.7772129901961 75.52127625 459.1759629901961 76.37658875L472.2500254901961 78.82033874999999Q482.3915879901961 80.77533875 487.3707286151961 85.29627625Q492.3498692401961 89.81721375 492.3498692401961 97.27065125Q492.3498692401961 104.2964325 488.2260411151961 109.48940124999999Q484.1022129901961 114.68236999999999 476.89315049019615 117.523229375Q469.68408799019613 120.36408875 460.33674424019614 120.36408875Z M522.7305692401961 80.1033075V119.08112H501.4088504901962V28.05143249999999H522.3029129901962V64.34111999999999Q524.7466629901961 58.720495 528.8399442401961 54.87158875Q534.1551004901962 49.922995 543.1969754901961 49.922995Q550.3449442401961 49.922995 555.6601004901961 53.099869999999996Q560.9752567401962 56.276745 563.9077567401962 62.08065125Q566.8402567401962 67.8845575 566.8402567401962 75.58237V119.08112H545.5185379901961V79.736745Q545.5185379901961 73.9939325 542.5860379901961 70.725416875Q539.6535379901961 67.45690124999999 534.3994754901962 67.45690124999999Q530.9782254901961 67.45690124999999 528.3206473651961 68.95369812499999Q525.6630692401961 70.45049499999999 524.1968192401962 73.2608075Q522.7305692401961 76.07112 522.7305692401961 80.1033075Z M579.0761129901961 119.08112V28.05143249999999H600.6422067401961V63.791276249999996H636.9929879901961V28.05143249999999H658.4979879901961V119.08112H636.9929879901961V81.38627625H600.6422067401961V119.08112Z M702.6247817401962 120.36408875Q691.9333754901962 120.36408875 684.1744692401962 116.118073125Q676.4155629901962 111.8720575 672.2917348651962 103.99096374999999Q668.1679067401961 96.10987 668.1679067401961 85.17408875Q668.1679067401961 74.66596375 672.2917348651962 66.72377625Q676.4155629901962 58.78158875 683.9911879901963 54.352291875Q691.5668129901962 49.922995 701.8305629901962 49.922995Q709.0396254901962 49.922995 715.0573598651962 52.18346375Q721.0750942401962 54.4439325 725.5043911151962 58.873229375Q729.9336879901962 63.30252625 732.3468911151962 69.77846375Q734.7600942401962 76.25440125 734.7600942401962 84.7464325V90.1226825H689.1230629901962Q689.3063442401962 94.70471375 690.8947817401962 97.88158874999999Q692.6054067401961 101.42502625 695.7211879901961 103.166198125Q698.8369692401961 104.90737 702.9913442401962 104.90737Q705.8627504901962 104.90737 708.2148598651961 104.11315125Q710.5669692401962 103.3189325 712.2470473651962 101.73049499999999Q713.9271254901962 100.14205749999999 714.7824379901962 97.88158874999999L733.7825942401962 100.99736999999999Q732.0719692401962 106.86237 727.8870473651962 111.230573125Q723.7021254901962 115.59877625 717.3178286151962 117.9814325Q710.9335317401961 120.36408875 702.6247817401962 120.36408875ZM689.2452504901962 77.72065125H714.5380629901962Q714.1715004901962 74.78815125 713.2550942401962 72.46658875Q711.7888442401962 69.04533875 708.9785317401962 67.21252625Q706.1682192401962 65.37971375 702.0138442401962 65.37971375Q697.8594692401962 65.37971375 694.9880629901961 67.243073125Q692.1166567401962 69.1064325 690.6504067401962 72.405495Q689.5507192401961 74.78815125 689.2452504901962 77.72065125Z M763.1857942401963 120.302995Q756.6487629901962 120.302995 751.5474348651962 118.07307312500001Q746.4461067401962 115.84315125 743.5747004901962 111.352760625Q740.7032942401962 106.86237 740.7032942401962 100.14205749999999Q740.7032942401962 94.46033875 742.6888411151963 90.55033875000001Q744.6743879901962 86.64033875 748.2178254901962 84.19658874999999Q751.7612629901962 81.75283875 756.3432942401962 80.46987Q760.9253254901962 79.18690125 766.1182942401963 78.75924499999999Q771.9222004901962 78.270495 775.4656379901962 77.690104375Q779.0090754901962 77.10971375 780.6586067401962 75.9489325Q782.3081379901962 74.78815125 782.3081379901962 72.71096374999999V72.46658875Q782.3081379901962 70.0839325 781.2084504901962 68.43440125000001Q780.1087629901963 66.78487 778.0315754901962 65.92955749999999Q775.9543879901962 65.07424499999999 773.0218879901962 65.07424499999999Q770.0893879901962 65.07424499999999 767.7983723651962 65.92955749999999Q765.5073567401962 66.78487 764.0411067401963 68.3733075Q762.5748567401962 69.961745 761.9639192401962 72.10002625L742.6582942401963 69.59518249999999Q744.0023567401962 63.7301825 747.9429036151962 59.300885625Q751.8834504901962 54.87158875 758.2677473651962 52.397291875Q764.6520442401962 49.922995 773.2051692401963 49.922995Q779.5589192401962 49.922995 785.0879036151962 51.419791875Q790.6168879901962 52.91658875 794.7712629901962 55.818541875Q798.9256379901963 58.720495 801.2472004901963 62.966510625Q803.5687629901962 67.21252625 803.5687629901962 72.71096374999999V119.08112H783.5300129901963V109.48940125H782.9801692401962Q781.1473567401962 113.03283875 778.3064973651963 115.41549499999999Q775.4656379901962 117.79815125 771.7083723651963 119.050573125Q767.9511067401962 120.302995 763.1857942401963 120.302995ZM769.6617317401963 106.19033875Q773.2662629901962 106.19033875 776.1682161151962 104.72408874999999Q779.0701692401963 103.25783874999999 780.7807942401962 100.69190125Q782.4914192401963 98.12596375 782.4914192401963 94.7658075V88.22877625Q781.5750129901962 88.71752624999999 780.2004036151963 89.1451825Q778.8257942401963 89.57283875 777.1762629901963 89.908854375Q775.5267317401963 90.24486999999999 773.8772004901963 90.519791875Q772.2276692401963 90.79471375 770.7003254901963 91.03908874999999Q767.5845442401962 91.466745 765.3851692401963 92.50533874999999Q763.1857942401963 93.5439325 762.0250129901963 95.19346375Q760.8642317401963 96.842995 760.8642317401963 99.1645575Q760.8642317401963 101.42502625 762.0250129901963 102.982916875Q763.1857942401963 104.5408075 765.1407942401963 105.365573125Q767.0957942401963 106.19033875 769.6617317401963 106.19033875Z M837.1263379901962 28.05143249999999V119.08112H815.8046192401963V28.05143249999999Z M886.2017254901963 50.7783075V66.60158874999999H873.9218817401963V98.1870575Q873.9218817401963 100.8751825 875.2048504901963 102.188698125Q876.4878192401964 103.50221375 879.3592254901963 103.50221375Q880.4589129901963 103.50221375 882.4444598651962 103.25783874999999Q884.4300067401963 103.01346375 885.2853192401964 102.76908875L888.0345379901963 118.28690125Q884.4300067401963 119.325495 881.0698504901964 119.6920575Q877.7096942401963 120.05862 874.7161004901964 120.05862Q863.8414129901963 120.05862 858.2207879901963 114.95729187500001Q852.6001629901963 109.85596375 852.6001629901963 100.08096375V66.60158874999999H843.5582879901963V50.7783075H852.6001629901963V34.52736999999999H873.9218817401963V50.7783075Z M916.5824254901963 80.1033075V119.08112H895.2607067401964V28.05143249999999H916.1547692401964V64.34111999999999Q918.5985192401963 58.720495 922.6918004901963 54.87158875Q928.0069567401964 49.922995 937.0488317401964 49.922995Q944.1968004901963 49.922995 949.5119567401964 53.099869999999996Q954.8271129901964 56.276745 957.7596129901964 62.08065125Q960.6921129901964 67.8845575 960.6921129901964 75.58237V119.08112H939.3703942401963V79.736745Q939.3703942401963 73.9939325 936.4378942401963 70.725416875Q933.5053942401963 67.45690124999999 928.2513317401964 67.45690124999999Q924.8300817401964 67.45690124999999 922.1725036151963 68.95369812499999Q919.5149254901963 70.45049499999999 918.0486754901963 73.2608075Q916.5824254901963 76.07112 916.5824254901963 80.1033075Z" fill="#02091C"/></g></svg>